{"title":"Season.of.the.Witch.2011.TS.XViD.Hive-CM8","uid":6105743,"size":1194571797,"categoryP":"video","categoryS":"movies","magnet":"?xt=urn:btih:da9e107b6b77cfb23ab43b8f1a3e206535ed89d8&amp;dn=Season.of.the.Witch.2011.TS.XViD.Hive-CM8&amp;tr=udp%3A%2F%2Ftracker.openbittorrent.com%3A80&amp;tr=udp%3A%2F%2Fopen.demonii.com%3A1337&amp;tr=udp%3A%2F%2Ftracker.coppersurfer.tk%3A6969&amp;tr=udp%3A%2F%2Fexodus.desync.com%3A6969","seeders":0,"leechers":0,"uploader":"SAFCukO09","files":4,"time":1295154186,"description":"Season of the Witch 2011 TS XViD Hive-CM8\n\n\n\nThx Hive\n\nCM8 Doing It Right The First Time\n\n\nSources:\nRussian Video:\nVremja.vedm.2010.D.TS.ELEKTRI4KA\nToxic-InkÃ‚Â´s Audio: Thx\nSeason.of.the.Witch.2011.TS.XViD-T0XiC-iNK\nthx Ink for syncing\nall creds go to Ink for syncing, i just tried to make the russian video better.\n\nEncode:\nadded bit brightness,contrast,sharpness,rgb colours,denoise and chroma.\ndespite the fact that the video is missing some lines above so that the heads are cutted off a bit its a watchable version.\n\n &lt;a href=&quot;\nhttp://www.imdb.com/title/tt0479997/&quot; rel=&quot;nofollow&quot; target=&quot;_NEW&quot;&gt;\nhttp://www.imdb.com/title/tt0479997/&lt;/a&gt;\n\n\nGeneral\nComplete name : Season.of.the.Witch.2011.TS.XViD.Hive-CM8.avi\nFormat : AVI\nFormat/Info : Audio Video Interleave\nFile size : 1.10 GiB\nDuration : 1h 24mn\nOverall bit rate : 1 866 Kbps\nWriting application : Nandub v1.0rc2\nWriting library : Nandub build 1853/release\n\nVideo\nID : 0\nFormat : MPEG-4 Visual\nFormat profile : Advanced Simple@L5\nFormat settings, BVOP : Yes\nFormat settings, QPel : Yes\nFormat settings, GMC : No warppoints\nFormat settings, Matrix : Default (H.263)\nMuxing mode : Packed bitstream\nCodec ID : XVID\nCodec ID/Hint : XviD\nDuration : 1h 24mn\nBit rate : 1 600 Kbps\nWidth : 720 pixels\nHeight : 320 pixels\nDisplay aspect ratio : 2.25:1\nFrame rate : 25.000 fps\nColor space : YUV\nChroma subsampling : 4:2:0\nBit depth : 8 bits\nScan type : Progressive\nBits/(Pixel*Frame) : 0.278\nStream size : 968 MiB (86%)\nWriting library : XviD 1.2.1 (UTC 2008-12-04)\n\nAudio\nID : 1\nFormat : AC-3\nFormat/Info : Audio Coding 3\nMode extension : CM (complete main)\nCodec ID : 2000\nDuration : 1h 24mn\nBit rate mode : Constant\nBit rate : 256 Kbps\nChannel(s) : 2 channels\nChannel positions : Front: L R\nSampling rate : 48.0 KHz\nBit depth : 16 bits\nStream size : 155 MiB (14%)\nAlignment : Split accross interleaves\nInterleave, duration : 40 ms (1.00 video frame)\nInterleave, preload duration : 500 ms\n\n\n\nNicolas Cage ... Behmen\nRon Perlman ... Felson\nStephen Campbell Moore ... Debelzaq\nStephen Graham ... Hagamar\nUlrich Thomsen ... Eckhart\nClaire Foy ... The Girl\nRobert Sheehan ... Kay\nChristopher Lee ... Cardinal D'Ambroise\nRebekah Kennedy ... Peasant Turk Girl\n\n\n\n\n14th-century knights transport a suspected witch to a monastery, where monks\ndeduce her powers could be the source of the Black Plague. ","torrent":{"xt":"urn:btih:da9e107b6b77cfb23ab43b8f1a3e206535ed89d8","amp;dn":"Season.of.the.Witch.2011.TS.XViD.Hive-CM8","amp;tr":["udp%3A%2F%2Ftracker.openbittorrent.com%3A80","udp%3A%2F%2Fopen.demonii.com%3A1337","udp%3A%2F%2Ftracker.coppersurfer.tk%3A6969","udp%3A%2F%2Fexodus.desync.com%3A6969"],"infoHash":"da9e107b6b77cfb23ab43b8f1a3e206535ed89d8","infoHashBuffer":{"type":"Buffer","data":[218,158,16,123,107,119,207,178,58,180,59,143,26,62,32,101,53,237,137,216]},"announce":[],"urlList":[]}}